<?xml version="1.0" encoding="UTF-8" standalone="no"?>
<!-- Created with Inkscape (http://www.inkscape.org/) -->
<svg xmlns:inkscape="http://www.inkscape.org/namespaces/inkscape" xmlns:rdf="http://www.w3.org/1999/02/22-rdf-syntax-ns#" xmlns="http://www.w3.org/2000/svg" xmlns:sodipodi="http://sodipodi.sourceforge.net/DTD/sodipodi-0.dtd" xmlns:ns1="http://sozi.baierouge.fr" xmlns:cc="http://creativecommons.org/ns#" xmlns:xlink="http://www.w3.org/1999/xlink" xmlns:dc="http://purl.org/dc/elements/1.1/" id="svg4582" sodipodi:docname="potionbull.svg" viewBox="0 0 82 86" version="1.1" inkscape:version="0.48.4 r9939" data-ember-extension="1">
  <sodipodi:namedview id="namedview4584" bordercolor="#666666" inkscape:pageshadow="2" guidetolerance="10" pagecolor="#ffffff" gridtolerance="10" inkscape:window-maximized="1" inkscape:zoom="4.4573171" objecttolerance="10" borderopacity="1" inkscape:current-layer="g4592" inkscape:cx="93.264002" inkscape:cy="54.24097" inkscape:window-y="-8" inkscape:window-x="-8" inkscape:window-width="1600" showgrid="false" inkscape:pageopacity="0" inkscape:window-height="837"/>
  <g id="g4592" transform="translate(.76786 2.0476)">
    <path id="path4596" style="fill:#bf0c0f" inkscape:connector-curvature="0" d="m36.017 27.938c-3.5591-0.15767-8.511-0.04754-8.7296 4.3438-7.2616 14.426-24.6 24.135-26.06 41 2.8701 7.0697 12.441 6.832 18.869 8.3204 19.292 2.042 39.951 2.7875 58.114-4.0391 5.791-3.0082 3.1669-10.323 0.42032-14.719-6.908-12.532-19.895-21.308-24.96-34.844-5.878 0.305-11.77-0.262-17.653-0.062z"/>
    <path id="path4594" style="fill:#1b0d0e" inkscape:connector-curvature="0" d="m22.5 84.023c-26.999-3.164-29.137-12.515-8.41-36.784 5.384-6.304 10.452-13.424 12.27-17.239 2.883-6.05 3.099-7.272 3.119-17.653 0.011-6.1334 0.359-10.944 0.771-10.69 0.412 0.2533 0.746 5.722 0.74 12.152-0.012 14.869-1.496 18.316-14.538 33.773-9.8247 11.644-14.817 20.428-14.27 25.107 0.671 5.729 11.902 9.149 32.818 9.995 16.282 0.657 29.149-0.645 37.6-3.807 5.373-2.011 7.401-4.083 7.399-7.561-0.001-3.38-5.745-13.786-10.66-19.316-9.539-10.73-13.345-15.814-15.817-21.124-2.218-4.765-2.504-6.704-2.512-17.067-0.006-6.43 0.328-11.899 0.74-12.152 0.412-0.2543 0.76 4.5566 0.771 10.69 0.02 10.381 0.236 11.603 3.119 17.653 1.818 3.8155 6.8854 10.935 12.27 17.239 17.419 20.395 18.511 29.839 3.96 34.233-10.694 3.2294-33.517 4.4083-49.37 2.5502z"/>
  </g>
  <metadata>
    <rdf:RDF>
      <cc:Work>
        <dc:format>image/svg+xml</dc:format>
        <dc:type rdf:resource="http://purl.org/dc/dcmitype/StillImage"/>
        <cc:license rdf:resource="http://creativecommons.org/licenses/publicdomain/"/>
        <dc:publisher>
          <cc:Agent rdf:about="http://openclipart.org/">
            <dc:title>Openclipart</dc:title>
          </cc:Agent>
        </dc:publisher>
      </cc:Work>
      <cc:License rdf:about="http://creativecommons.org/licenses/publicdomain/">
        <cc:permits rdf:resource="http://creativecommons.org/ns#Reproduction"/>
        <cc:permits rdf:resource="http://creativecommons.org/ns#Distribution"/>
        <cc:permits rdf:resource="http://creativecommons.org/ns#DerivativeWorks"/>
      </cc:License>
    </rdf:RDF>
  </metadata>
</svg>